<svg xmlns="http://www.w3.org/2000/svg" width="83.05" height="83.051" viewBox="0 0 83.05 83.051"><defs><style>.a{fill:#ffeb00;}.b{fill:#009ff9;}.c{fill:#2b2c84;}</style></defs><g transform="translate(-19.932 -19.93)"><g transform="translate(40.759 37.534)"><path class="a" d="M118.868,81.7H107.453V70.288a4.557,4.557,0,0,0-4.544-4.543H94.635a4.556,4.556,0,0,0-4.543,4.543V81.7H78.675a4.556,4.556,0,0,0-4.541,4.543V94.52a4.556,4.556,0,0,0,4.541,4.544H90.092v11.414a4.555,4.555,0,0,0,4.543,4.542h8.274a4.556,4.556,0,0,0,4.544-4.542V99.064h11.415a4.556,4.556,0,0,0,4.542-4.544V86.245A4.556,4.556,0,0,0,118.868,81.7Z" transform="translate(-74.134 -65.745)"/></g><g transform="translate(19.932 19.93)"><path class="b" d="M82.156,112.319h8.274a5.938,5.938,0,0,0,5.931-5.931V96.361h10.026a5.938,5.938,0,0,0,5.931-5.931V82.155a5.938,5.938,0,0,0-5.931-5.931H96.362V66.2a5.937,5.937,0,0,0-5.931-5.93H82.156a5.938,5.938,0,0,0-5.932,5.93V76.225H66.2a5.937,5.937,0,0,0-5.931,5.931v8.275A5.937,5.937,0,0,0,66.2,96.362H76.225v10.027A5.938,5.938,0,0,0,82.156,112.319ZM66.2,93.585a3.158,3.158,0,0,1-3.155-3.155V82.155A3.159,3.159,0,0,1,66.2,79H77.612A1.388,1.388,0,0,0,79,77.613V66.2a3.159,3.159,0,0,1,3.156-3.154h8.274A3.157,3.157,0,0,1,93.585,66.2V77.613A1.388,1.388,0,0,0,94.973,79h11.415a3.158,3.158,0,0,1,3.154,3.155V90.43a3.158,3.158,0,0,1-3.154,3.155H94.973a1.388,1.388,0,0,0-1.388,1.389v11.415a3.158,3.158,0,0,1-3.154,3.155H82.156A3.159,3.159,0,0,1,79,106.388V94.973a1.388,1.388,0,0,0-1.388-1.389Z" transform="translate(-44.769 -44.768)"/><path class="c" d="M99.862,45.636q-.162-.4-.332-.785a1.388,1.388,0,1,0-2.544,1.113q.157.361.309.729a38.777,38.777,0,0,1-33.524,53.445h0c-.76.044-1.53.067-2.287.067h-.025a38.749,38.749,0,1,1,18.159-72.99A39.205,39.205,0,0,1,92.067,37.691a1.388,1.388,0,1,0,2.191-1.7,41.459,41.459,0,0,0-32.8-16.058h0A41.68,41.68,0,0,0,22.461,47.15a.008.008,0,0,1,0,0,41.554,41.554,0,0,0,39,55.827h.027c.81,0,1.634-.025,2.45-.072h0A41.553,41.553,0,0,0,99.862,45.636Z" transform="translate(-19.932 -19.93)"/><path class="c" d="M48.54,79.865a1.388,1.388,0,0,0-1.921.4c-.679,1.039-1.318,2.121-1.9,3.215a1.388,1.388,0,1,0,2.452,1.3c.543-1.021,1.139-2.031,1.771-3A1.387,1.387,0,0,0,48.54,79.865Z" transform="translate(-35.094 -56.696)"/><path class="c" d="M65.821,51.043a1.387,1.387,0,0,0,.963-.388,38.83,38.83,0,0,1,8.944-6.442h0c1.029-.537,2.091-1.032,3.158-1.472a1.388,1.388,0,1,0-1.058-2.567c-1.145.471-2.283,1-3.385,1.578l0,0a41.661,41.661,0,0,0-9.583,6.9,1.389,1.389,0,0,0,.963,2.389Z" transform="translate(-47.334 -32.33)"/></g></g></svg>