<svg xmlns="http://www.w3.org/2000/svg" width="27.023" height="23.645" viewBox="0 0 27.023 23.645"><defs><style>.a{fill:rgba(155,155,155,0.45);}</style></defs><path class="a" d="M24.342,37.067H4.222a.844.844,0,0,1,0-1.689H24.49a.844.844,0,0,0,.844-.844A2.533,2.533,0,0,0,22.8,32H3.378A3.378,3.378,0,0,0,0,35.378v16.89a3.378,3.378,0,0,0,3.378,3.378H24.342a2.613,2.613,0,0,0,2.681-2.533V39.6A2.613,2.613,0,0,0,24.342,37.067ZM21.956,48.045a1.689,1.689,0,1,1,1.689-1.689A1.689,1.689,0,0,1,21.956,48.045Z" transform="translate(0 -32)"/></svg>